%TF.GenerationSoftware,KiCad,Pcbnew,9.0.3*%
%TF.CreationDate,2026-08-18T15:31:33+04:00*%
%TF.ProjectId,max30102_pcb,6d617833-3031-4303-925f-7063622e6b69,rev?*%
%TF.SameCoordinates,Original*%
%TF.FileFunction,Soldermask,Bot*%
%TF.FilePolarity,Negative*%
%FSLAX46Y46*%
G04 Gerber Fmt 4.6, Leading zero omitted, Abs format (unit mm)*
G04 Created by KiCad (PCBNEW 9.0.3) date 2026-08-18 15:31:33*
%MOMM*%
%LPD*%
G01*
G04 APERTURE LIST*
%ADD10C,0.700000*%
%ADD11C,4.400000*%
%ADD12R,1.700000X1.700000*%
%ADD13C,1.700000*%
G04 APERTURE END LIST*
D10*
%TO.C,H3*%
X115850000Y-77750000D03*
X116333274Y-76583274D03*
X116333274Y-78916726D03*
X117500000Y-76100000D03*
D11*
X117500000Y-77750000D03*
D10*
X117500000Y-79400000D03*
X118666726Y-76583274D03*
X118666726Y-78916726D03*
X119150000Y-77750000D03*
%TD*%
D12*
%TO.C,J1*%
X101960000Y-77750000D03*
D13*
X104500000Y-77750000D03*
X107040000Y-77750000D03*
X109580000Y-77750000D03*
X112120000Y-77750000D03*
%TD*%
D10*
%TO.C,H2*%
X95100000Y-77750000D03*
X95583274Y-76583274D03*
X95583274Y-78916726D03*
X96750000Y-76100000D03*
D11*
X96750000Y-77750000D03*
D10*
X96750000Y-79400000D03*
X97916726Y-76583274D03*
X97916726Y-78916726D03*
X98400000Y-77750000D03*
%TD*%
%TO.C,H1*%
X95100000Y-65250000D03*
X95583274Y-64083274D03*
X95583274Y-66416726D03*
X96750000Y-63600000D03*
D11*
X96750000Y-65250000D03*
D10*
X96750000Y-66900000D03*
X97916726Y-64083274D03*
X97916726Y-66416726D03*
X98400000Y-65250000D03*
%TD*%
%TO.C,H4*%
X115850000Y-65250000D03*
X116333274Y-64083274D03*
X116333274Y-66416726D03*
X117500000Y-63600000D03*
D11*
X117500000Y-65250000D03*
D10*
X117500000Y-66900000D03*
X118666726Y-64083274D03*
X118666726Y-66416726D03*
X119150000Y-65250000D03*
%TD*%
M02*
