%TF.GenerationSoftware,KiCad,Pcbnew,9.0.3*%
%TF.CreationDate,2026-08-18T15:31:33+04:00*%
%TF.ProjectId,max30102_pcb,6d617833-3031-4303-925f-7063622e6b69,rev?*%
%TF.SameCoordinates,Original*%
%TF.FileFunction,Paste,Top*%
%TF.FilePolarity,Positive*%
%FSLAX46Y46*%
G04 Gerber Fmt 4.6, Leading zero omitted, Abs format (unit mm)*
G04 Created by KiCad (PCBNEW 9.0.3) date 2026-08-18 15:31:33*
%MOMM*%
%LPD*%
G01*
G04 APERTURE LIST*
G04 Aperture macros list*
%AMRoundRect*
0 Rectangle with rounded corners*
0 $1 Rounding radius*
0 $2 $3 $4 $5 $6 $7 $8 $9 X,Y pos of 4 corners*
0 Add a 4 corners polygon primitive as box body*
4,1,4,$2,$3,$4,$5,$6,$7,$8,$9,$2,$3,0*
0 Add four circle primitives for the rounded corners*
1,1,$1+$1,$2,$3*
1,1,$1+$1,$4,$5*
1,1,$1+$1,$6,$7*
1,1,$1+$1,$8,$9*
0 Add four rect primitives between the rounded corners*
20,1,$1+$1,$2,$3,$4,$5,0*
20,1,$1+$1,$4,$5,$6,$7,0*
20,1,$1+$1,$6,$7,$8,$9,0*
20,1,$1+$1,$8,$9,$2,$3,0*%
G04 Aperture macros list end*
%ADD10RoundRect,0.225000X0.250000X-0.225000X0.250000X0.225000X-0.250000X0.225000X-0.250000X-0.225000X0*%
%ADD11RoundRect,0.225000X0.225000X0.250000X-0.225000X0.250000X-0.225000X-0.250000X0.225000X-0.250000X0*%
%ADD12RoundRect,0.225000X-0.250000X0.225000X-0.250000X-0.225000X0.250000X-0.225000X0.250000X0.225000X0*%
%ADD13RoundRect,0.237500X-0.237500X0.250000X-0.237500X-0.250000X0.237500X-0.250000X0.237500X0.250000X0*%
%ADD14RoundRect,0.150000X-0.512500X-0.150000X0.512500X-0.150000X0.512500X0.150000X-0.512500X0.150000X0*%
%ADD15RoundRect,0.150000X-0.150000X0.512500X-0.150000X-0.512500X0.150000X-0.512500X0.150000X0.512500X0*%
%ADD16RoundRect,0.237500X-0.287500X-0.237500X0.287500X-0.237500X0.287500X0.237500X-0.287500X0.237500X0*%
%ADD17RoundRect,0.087500X0.287500X0.087500X-0.287500X0.087500X-0.287500X-0.087500X0.287500X-0.087500X0*%
%ADD18RoundRect,0.237500X0.237500X-0.250000X0.237500X0.250000X-0.237500X0.250000X-0.237500X-0.250000X0*%
G04 APERTURE END LIST*
D10*
%TO.C,C1*%
X113750000Y-69775000D03*
X113750000Y-68225000D03*
%TD*%
D11*
%TO.C,C3*%
X101775000Y-66750000D03*
X100225000Y-66750000D03*
%TD*%
D12*
%TO.C,C5*%
X104550000Y-69312500D03*
X104550000Y-70862500D03*
%TD*%
D13*
%TO.C,R1*%
X112250000Y-68087500D03*
X112250000Y-69912500D03*
%TD*%
D14*
%TO.C,U1*%
X113112500Y-71550000D03*
X113112500Y-72500000D03*
X113112500Y-73450000D03*
X115387500Y-73450000D03*
X115387500Y-71550000D03*
%TD*%
D15*
%TO.C,U2*%
X100000000Y-68975000D03*
X99050000Y-68975000D03*
X98100000Y-68975000D03*
X98100000Y-71250000D03*
X100000000Y-71250000D03*
%TD*%
D16*
%TO.C,D1*%
X112375000Y-75000000D03*
X114125000Y-75000000D03*
%TD*%
D11*
%TO.C,C4*%
X99825000Y-73112500D03*
X98275000Y-73112500D03*
%TD*%
D10*
%TO.C,C2*%
X115250000Y-69775000D03*
X115250000Y-68225000D03*
%TD*%
D17*
%TO.C,U3*%
X108950000Y-72150000D03*
X108950000Y-71350000D03*
X108950000Y-70550000D03*
X108950000Y-69750000D03*
X108950000Y-68950000D03*
X108950000Y-68150000D03*
X108950000Y-67350000D03*
X106550000Y-67350000D03*
X106550000Y-68150000D03*
X106550000Y-68950000D03*
X106550000Y-69750000D03*
X106550000Y-70550000D03*
X106550000Y-71350000D03*
X106550000Y-72150000D03*
%TD*%
D12*
%TO.C,C6*%
X103050000Y-69312500D03*
X103050000Y-70862500D03*
%TD*%
D18*
%TO.C,R3*%
X101550000Y-71162500D03*
X101550000Y-69337500D03*
%TD*%
D13*
%TO.C,R2*%
X110750000Y-68087500D03*
X110750000Y-69912500D03*
%TD*%
M02*
