%TF.GenerationSoftware,KiCad,Pcbnew,9.0.3*%
%TF.CreationDate,2026-08-18T15:31:33+04:00*%
%TF.ProjectId,max30102_pcb,6d617833-3031-4303-925f-7063622e6b69,rev?*%
%TF.SameCoordinates,Original*%
%TF.FileFunction,Copper,L2,Bot*%
%TF.FilePolarity,Positive*%
%FSLAX46Y46*%
G04 Gerber Fmt 4.6, Leading zero omitted, Abs format (unit mm)*
G04 Created by KiCad (PCBNEW 9.0.3) date 2026-08-18 15:31:33*
%MOMM*%
%LPD*%
G01*
G04 APERTURE LIST*
%TA.AperFunction,ComponentPad*%
%ADD10C,0.700000*%
%TD*%
%TA.AperFunction,ComponentPad*%
%ADD11C,4.400000*%
%TD*%
%TA.AperFunction,ComponentPad*%
%ADD12R,1.700000X1.700000*%
%TD*%
%TA.AperFunction,ComponentPad*%
%ADD13C,1.700000*%
%TD*%
%TA.AperFunction,ViaPad*%
%ADD14C,0.600000*%
%TD*%
%TA.AperFunction,Conductor*%
%ADD15C,0.400000*%
%TD*%
%TA.AperFunction,Conductor*%
%ADD16C,0.600000*%
%TD*%
%TA.AperFunction,Conductor*%
%ADD17C,0.500000*%
%TD*%
%TA.AperFunction,Conductor*%
%ADD18C,0.300000*%
%TD*%
G04 APERTURE END LIST*
D10*
%TO.P,H3,1,1*%
%TO.N,GND*%
X115850000Y-77750000D03*
X116333274Y-76583274D03*
X116333274Y-78916726D03*
X117500000Y-76100000D03*
D11*
X117500000Y-77750000D03*
D10*
X117500000Y-79400000D03*
X118666726Y-76583274D03*
X118666726Y-78916726D03*
X119150000Y-77750000D03*
%TD*%
D12*
%TO.P,J1,1,Pin_1*%
%TO.N,GND*%
X101960000Y-77750000D03*
D13*
%TO.P,J1,2,Pin_2*%
%TO.N,/INT*%
X104500000Y-77750000D03*
%TO.P,J1,3,Pin_3*%
%TO.N,/SDA*%
X107040000Y-77750000D03*
%TO.P,J1,4,Pin_4*%
%TO.N,/SCL*%
X109580000Y-77750000D03*
%TO.P,J1,5,Pin_5*%
%TO.N,+5V*%
X112120000Y-77750000D03*
%TD*%
D10*
%TO.P,H2,1,1*%
%TO.N,GND*%
X95100000Y-77750000D03*
X95583274Y-76583274D03*
X95583274Y-78916726D03*
X96750000Y-76100000D03*
D11*
X96750000Y-77750000D03*
D10*
X96750000Y-79400000D03*
X97916726Y-76583274D03*
X97916726Y-78916726D03*
X98400000Y-77750000D03*
%TD*%
%TO.P,H1,1,1*%
%TO.N,GND*%
X95100000Y-65250000D03*
X95583274Y-64083274D03*
X95583274Y-66416726D03*
X96750000Y-63600000D03*
D11*
X96750000Y-65250000D03*
D10*
X96750000Y-66900000D03*
X97916726Y-64083274D03*
X97916726Y-66416726D03*
X98400000Y-65250000D03*
%TD*%
%TO.P,H4,1,1*%
%TO.N,GND*%
X115850000Y-65250000D03*
X116333274Y-64083274D03*
X116333274Y-66416726D03*
X117500000Y-63600000D03*
D11*
X117500000Y-65250000D03*
D10*
X117500000Y-66900000D03*
X118666726Y-64083274D03*
X118666726Y-66416726D03*
X119150000Y-65250000D03*
%TD*%
D14*
%TO.N,+1V8*%
X104600000Y-66560000D03*
%TO.N,GND*%
X114399021Y-72482117D03*
X95610000Y-71080000D03*
X95610000Y-73110000D03*
X104550176Y-71845017D03*
X118770000Y-70743333D03*
X105750000Y-74500000D03*
X99000000Y-67750000D03*
X118790000Y-68690000D03*
X118650000Y-74850000D03*
X99255605Y-66761566D03*
X115250000Y-75000000D03*
X95590000Y-68350000D03*
X106500000Y-73500000D03*
X105750000Y-75500000D03*
X103095729Y-71815213D03*
X108006316Y-69726156D03*
X118750000Y-72796667D03*
X101860000Y-75070000D03*
X97227836Y-73137761D03*
X107463523Y-70543995D03*
%TO.N,+3V3*%
X111780000Y-65630000D03*
X116750000Y-69750000D03*
%TO.N,+1V8*%
X101021109Y-73112500D03*
X104250000Y-68250000D03*
%TO.N,/SCL*%
X110991053Y-71747018D03*
X110750000Y-73750000D03*
%TO.N,/SDA*%
X110250000Y-72750000D03*
X110250000Y-71000000D03*
%TD*%
D15*
%TO.N,+1V8*%
X104540000Y-66560000D02*
X104250000Y-66850000D01*
X104250000Y-66850000D02*
X104250000Y-68250000D01*
D16*
%TO.N,+3V3*%
X116750000Y-69000000D02*
X116750000Y-69750000D01*
X111800000Y-65650000D02*
X113400000Y-65650000D01*
X111780000Y-65630000D02*
X111800000Y-65650000D01*
X113400000Y-65650000D02*
X116750000Y-69000000D01*
D17*
%TO.N,+1V8*%
X101021109Y-73112500D02*
X101021109Y-72978891D01*
X102000000Y-72000000D02*
X102000000Y-69750000D01*
X101021109Y-72978891D02*
X102000000Y-72000000D01*
X103500000Y-68250000D02*
X104250000Y-68250000D01*
X102000000Y-69750000D02*
X103500000Y-68250000D01*
D18*
%TO.N,/SCL*%
X110750000Y-73750000D02*
X110991053Y-73508947D01*
X110991053Y-73508947D02*
X110991053Y-71747018D01*
%TO.N,/SDA*%
X110250000Y-72750000D02*
X110250000Y-71000000D01*
%TD*%
%TA.AperFunction,Conductor*%
%TO.N,GND*%
G36*
X117503736Y-62900726D02*
G01*
X117775717Y-62917178D01*
X117790578Y-62918982D01*
X118054904Y-62967421D01*
X118069430Y-62971002D01*
X118325981Y-63050947D01*
X118339972Y-63056252D01*
X118585034Y-63166545D01*
X118598280Y-63173498D01*
X118828255Y-63312522D01*
X118840566Y-63321020D01*
X119052105Y-63486750D01*
X119063313Y-63496680D01*
X119253319Y-63686686D01*
X119263249Y-63697894D01*
X119367417Y-63830855D01*
X119428975Y-63909427D01*
X119437479Y-63921747D01*
X119493646Y-64014658D01*
X119576498Y-64151713D01*
X119583457Y-64164972D01*
X119693745Y-64410022D01*
X119699054Y-64424023D01*
X119778995Y-64680563D01*
X119782579Y-64695102D01*
X119831016Y-64959420D01*
X119832821Y-64974283D01*
X119849274Y-65246262D01*
X119849500Y-65253750D01*
X119849500Y-77746249D01*
X119849274Y-77753737D01*
X119832821Y-78025716D01*
X119831016Y-78040579D01*
X119782579Y-78304897D01*
X119778995Y-78319436D01*
X119699054Y-78575976D01*
X119693745Y-78589977D01*
X119583457Y-78835027D01*
X119576498Y-78848286D01*
X119437481Y-79078249D01*
X119428975Y-79090572D01*
X119263249Y-79302105D01*
X119253319Y-79313313D01*
X119063313Y-79503319D01*
X119052105Y-79513249D01*
X118840572Y-79678975D01*
X118828249Y-79687481D01*
X118598286Y-79826498D01*
X118585027Y-79833457D01*
X118339977Y-79943745D01*
X118325976Y-79949054D01*
X118069436Y-80028995D01*
X118054897Y-80032579D01*
X117790579Y-80081016D01*
X117775716Y-80082821D01*
X117521326Y-80098209D01*
X117503735Y-80099274D01*
X117496249Y-80099500D01*
X96753751Y-80099500D01*
X96746264Y-80099274D01*
X96474284Y-80082821D01*
X96459420Y-80081016D01*
X96195102Y-80032579D01*
X96180563Y-80028995D01*
X95924023Y-79949054D01*
X95910022Y-79943745D01*
X95664972Y-79833457D01*
X95651713Y-79826498D01*
X95421750Y-79687481D01*
X95409427Y-79678975D01*
X95197894Y-79513249D01*
X95186686Y-79503319D01*
X94996680Y-79313313D01*
X94986750Y-79302105D01*
X94892857Y-79182260D01*
X94821020Y-79090566D01*
X94812522Y-79078255D01*
X94673498Y-78848280D01*
X94666545Y-78835034D01*
X94556252Y-78589972D01*
X94550945Y-78575976D01*
X94471002Y-78319430D01*
X94467420Y-78304897D01*
X94460734Y-78268414D01*
X94418982Y-78040578D01*
X94417178Y-78025715D01*
X94400726Y-77753736D01*
X94400500Y-77746249D01*
X94400500Y-77643713D01*
X103149500Y-77643713D01*
X103149500Y-77856286D01*
X103182753Y-78066239D01*
X103248444Y-78268414D01*
X103344951Y-78457820D01*
X103469890Y-78629786D01*
X103620213Y-78780109D01*
X103792179Y-78905048D01*
X103792181Y-78905049D01*
X103792184Y-78905051D01*
X103981588Y-79001557D01*
X104183757Y-79067246D01*
X104393713Y-79100500D01*
X104393714Y-79100500D01*
X104606286Y-79100500D01*
X104606287Y-79100500D01*
X104816243Y-79067246D01*
X105018412Y-79001557D01*
X105207816Y-78905051D01*
X105294782Y-78841867D01*
X105379786Y-78780109D01*
X105379788Y-78780106D01*
X105379792Y-78780104D01*
X105530104Y-78629792D01*
X105530106Y-78629788D01*
X105530109Y-78629786D01*
X105655048Y-78457820D01*
X105655047Y-78457820D01*
X105655051Y-78457816D01*
X105659514Y-78449054D01*
X105707488Y-78398259D01*
X105775308Y-78381463D01*
X105841444Y-78403999D01*
X105880486Y-78449056D01*
X105884951Y-78457820D01*
X106009890Y-78629786D01*
X106160213Y-78780109D01*
X106332179Y-78905048D01*
X106332181Y-78905049D01*
X106332184Y-78905051D01*
X106521588Y-79001557D01*
X106723757Y-79067246D01*
X106933713Y-79100500D01*
X106933714Y-79100500D01*
X107146286Y-79100500D01*
X107146287Y-79100500D01*
X107356243Y-79067246D01*
X107558412Y-79001557D01*
X107747816Y-78905051D01*
X107834782Y-78841867D01*
X107919786Y-78780109D01*
X107919788Y-78780106D01*
X107919792Y-78780104D01*
X108070104Y-78629792D01*
X108070106Y-78629788D01*
X108070109Y-78629786D01*
X108195048Y-78457820D01*
X108195047Y-78457820D01*
X108195051Y-78457816D01*
X108199514Y-78449054D01*
X108247488Y-78398259D01*
X108315308Y-78381463D01*
X108381444Y-78403999D01*
X108420486Y-78449056D01*
X108424951Y-78457820D01*
X108549890Y-78629786D01*
X108700213Y-78780109D01*
X108872179Y-78905048D01*
X108872181Y-78905049D01*
X108872184Y-78905051D01*
X109061588Y-79001557D01*
X109263757Y-79067246D01*
X109473713Y-79100500D01*
X109473714Y-79100500D01*
X109686286Y-79100500D01*
X109686287Y-79100500D01*
X109896243Y-79067246D01*
X110098412Y-79001557D01*
X110287816Y-78905051D01*
X110374782Y-78841867D01*
X110459786Y-78780109D01*
X110459788Y-78780106D01*
X110459792Y-78780104D01*
X110610104Y-78629792D01*
X110610106Y-78629788D01*
X110610109Y-78629786D01*
X110735048Y-78457820D01*
X110735047Y-78457820D01*
X110735051Y-78457816D01*
X110739514Y-78449054D01*
X110787488Y-78398259D01*
X110855308Y-78381463D01*
X110921444Y-78403999D01*
X110960486Y-78449056D01*
X110964951Y-78457820D01*
X111089890Y-78629786D01*
X111240213Y-78780109D01*
X111412179Y-78905048D01*
X111412181Y-78905049D01*
X111412184Y-78905051D01*
X111601588Y-79001557D01*
X111803757Y-79067246D01*
X112013713Y-79100500D01*
X112013714Y-79100500D01*
X112226286Y-79100500D01*
X112226287Y-79100500D01*
X112436243Y-79067246D01*
X112638412Y-79001557D01*
X112827816Y-78905051D01*
X112914782Y-78841867D01*
X112999786Y-78780109D01*
X112999788Y-78780106D01*
X112999792Y-78780104D01*
X113150104Y-78629792D01*
X113150106Y-78629788D01*
X113150109Y-78629786D01*
X113275048Y-78457820D01*
X113275047Y-78457820D01*
X113275051Y-78457816D01*
X113371557Y-78268412D01*
X113437246Y-78066243D01*
X113470500Y-77856287D01*
X113470500Y-77643713D01*
X113437246Y-77433757D01*
X113371557Y-77231588D01*
X113275051Y-77042184D01*
X113275049Y-77042181D01*
X113275048Y-77042179D01*
X113150109Y-76870213D01*
X112999786Y-76719890D01*
X112827820Y-76594951D01*
X112638414Y-76498444D01*
X112638413Y-76498443D01*
X112638412Y-76498443D01*
X112436243Y-76432754D01*
X112436241Y-76432753D01*
X112436240Y-76432753D01*
X112274957Y-76407208D01*
X112226287Y-76399500D01*
X112013713Y-76399500D01*
X111965042Y-76407208D01*
X111803760Y-76432753D01*
X111601585Y-76498444D01*
X111412179Y-76594951D01*
X111240213Y-76719890D01*
X111089890Y-76870213D01*
X110964949Y-77042182D01*
X110960484Y-77050946D01*
X110912509Y-77101742D01*
X110844688Y-77118536D01*
X110778553Y-77095998D01*
X110739516Y-77050946D01*
X110735050Y-77042182D01*
X110610109Y-76870213D01*
X110459786Y-76719890D01*
X110287820Y-76594951D01*
X110098414Y-76498444D01*
X110098413Y-76498443D01*
X110098412Y-76498443D01*
X109896243Y-76432754D01*
X109896241Y-76432753D01*
X109896240Y-76432753D01*
X109734957Y-76407208D01*
X109686287Y-76399500D01*
X109473713Y-76399500D01*
X109425042Y-76407208D01*
X109263760Y-76432753D01*
X109061585Y-76498444D01*
X108872179Y-76594951D01*
X108700213Y-76719890D01*
X108549890Y-76870213D01*
X108424949Y-77042182D01*
X108420484Y-77050946D01*
X108372509Y-77101742D01*
X108304688Y-77118536D01*
X108238553Y-77095998D01*
X108199516Y-77050946D01*
X108195050Y-77042182D01*
X108070109Y-76870213D01*
X107919786Y-76719890D01*
X107747820Y-76594951D01*
X107558414Y-76498444D01*
X107558413Y-76498443D01*
X107558412Y-76498443D01*
X107356243Y-76432754D01*
X107356241Y-76432753D01*
X107356240Y-76432753D01*
X107194957Y-76407208D01*
X107146287Y-76399500D01*
X106933713Y-76399500D01*
X106885042Y-76407208D01*
X106723760Y-76432753D01*
X106521585Y-76498444D01*
X106332179Y-76594951D01*
X106160213Y-76719890D01*
X106009890Y-76870213D01*
X105884949Y-77042182D01*
X105880484Y-77050946D01*
X105832509Y-77101742D01*
X105764688Y-77118536D01*
X105698553Y-77095998D01*
X105659516Y-77050946D01*
X105655050Y-77042182D01*
X105530109Y-76870213D01*
X105379786Y-76719890D01*
X105207820Y-76594951D01*
X105018414Y-76498444D01*
X105018413Y-76498443D01*
X105018412Y-76498443D01*
X104816243Y-76432754D01*
X104816241Y-76432753D01*
X104816240Y-76432753D01*
X104654957Y-76407208D01*
X104606287Y-76399500D01*
X104393713Y-76399500D01*
X104345042Y-76407208D01*
X104183760Y-76432753D01*
X103981585Y-76498444D01*
X103792179Y-76594951D01*
X103620213Y-76719890D01*
X103469890Y-76870213D01*
X103344951Y-77042179D01*
X103248444Y-77231585D01*
X103182753Y-77433760D01*
X103149500Y-77643713D01*
X94400500Y-77643713D01*
X94400500Y-73033653D01*
X100220609Y-73033653D01*
X100220609Y-73191346D01*
X100251370Y-73345989D01*
X100251373Y-73346001D01*
X100311711Y-73491672D01*
X100311718Y-73491685D01*
X100399319Y-73622788D01*
X100399322Y-73622792D01*
X100510816Y-73734286D01*
X100510820Y-73734289D01*
X100641923Y-73821890D01*
X100641936Y-73821897D01*
X100705803Y-73848351D01*
X100787612Y-73882237D01*
X100942262Y-73912999D01*
X100942265Y-73913000D01*
X100942267Y-73913000D01*
X101099953Y-73913000D01*
X101099954Y-73912999D01*
X101254606Y-73882237D01*
X101383514Y-73828842D01*
X101400281Y-73821897D01*
X101400281Y-73821896D01*
X101400288Y-73821894D01*
X101531398Y-73734289D01*
X101642898Y-73622789D01*
X101730503Y-73491679D01*
X101790846Y-73345997D01*
X101802248Y-73288671D01*
X101834631Y-73226762D01*
X101836124Y-73225242D01*
X102582952Y-72478416D01*
X102637005Y-72397518D01*
X102665084Y-72355495D01*
X102721658Y-72218913D01*
X102750500Y-72073918D01*
X102750500Y-70921153D01*
X109449500Y-70921153D01*
X109449500Y-71078846D01*
X109480261Y-71233489D01*
X109480264Y-71233501D01*
X109540602Y-71379172D01*
X109540606Y-71379179D01*
X109578602Y-71436044D01*
X109599480Y-71502721D01*
X109599500Y-71504935D01*
X109599500Y-72245064D01*
X109579815Y-72312103D01*
X109578603Y-72313954D01*
X109540608Y-72370817D01*
X109540602Y-72370828D01*
X109480264Y-72516498D01*
X109480261Y-72516510D01*
X109449500Y-72671153D01*
X109449500Y-72828846D01*
X109480261Y-72983489D01*
X109480264Y-72983501D01*
X109540602Y-73129172D01*
X109540609Y-73129185D01*
X109628210Y-73260288D01*
X109628213Y-73260292D01*
X109739707Y-73371786D01*
X109739711Y-73371789D01*
X109870817Y-73459392D01*
X109870819Y-73459393D01*
X109870821Y-73459394D01*
X109888409Y-73466679D01*
X109942812Y-73510520D01*
X109964877Y-73576814D01*
X109962573Y-73605431D01*
X109949500Y-73671153D01*
X109949500Y-73828846D01*
X109980261Y-73983489D01*
X109980264Y-73983501D01*
X110040602Y-74129172D01*
X110040609Y-74129185D01*
X110128210Y-74260288D01*
X110128213Y-74260292D01*
X110239707Y-74371786D01*
X110239711Y-74371789D01*
X110370814Y-74459390D01*
X110370827Y-74459397D01*
X110516498Y-74519735D01*
X110516503Y-74519737D01*
X110671153Y-74550499D01*
X110671156Y-74550500D01*
X110671158Y-74550500D01*
X110828844Y-74550500D01*
X110828845Y-74550499D01*
X110983497Y-74519737D01*
X111129179Y-74459394D01*
X111260289Y-74371789D01*
X111371789Y-74260289D01*
X111459394Y-74129179D01*
X111519737Y-73983497D01*
X111541808Y-73872535D01*
X111560322Y-73827842D01*
X111567518Y-73817074D01*
X111616554Y-73698691D01*
X111637992Y-73590916D01*
X111637993Y-73590912D01*
X111641553Y-73573020D01*
X111641553Y-72251953D01*
X111661238Y-72184914D01*
X111662419Y-72183108D01*
X111700447Y-72126197D01*
X111760790Y-71980515D01*
X111791553Y-71825860D01*
X111791553Y-71668176D01*
X111791553Y-71668173D01*
X111791552Y-71668171D01*
X111760791Y-71513528D01*
X111760790Y-71513521D01*
X111728698Y-71436043D01*
X111700450Y-71367845D01*
X111700443Y-71367832D01*
X111612842Y-71236729D01*
X111612839Y-71236725D01*
X111501345Y-71125231D01*
X111501341Y-71125228D01*
X111370238Y-71037627D01*
X111370225Y-71037620D01*
X111224554Y-70977282D01*
X111224544Y-70977279D01*
X111136214Y-70959709D01*
X111074303Y-70927324D01*
X111039729Y-70866608D01*
X111038789Y-70862283D01*
X111019738Y-70766510D01*
X111019737Y-70766503D01*
X111019735Y-70766498D01*
X110959397Y-70620827D01*
X110959390Y-70620814D01*
X110871789Y-70489711D01*
X110871786Y-70489707D01*
X110760292Y-70378213D01*
X110760288Y-70378210D01*
X110629185Y-70290609D01*
X110629172Y-70290602D01*
X110483501Y-70230264D01*
X110483489Y-70230261D01*
X110328845Y-70199500D01*
X110328842Y-70199500D01*
X110171158Y-70199500D01*
X110171155Y-70199500D01*
X110016510Y-70230261D01*
X110016498Y-70230264D01*
X109870827Y-70290602D01*
X109870814Y-70290609D01*
X109739711Y-70378210D01*
X109739707Y-70378213D01*
X109628213Y-70489707D01*
X109628210Y-70489711D01*
X109540609Y-70620814D01*
X109540602Y-70620827D01*
X109480264Y-70766498D01*
X109480261Y-70766510D01*
X109449500Y-70921153D01*
X102750500Y-70921153D01*
X102750500Y-70112229D01*
X102770185Y-70045190D01*
X102786819Y-70024548D01*
X103774548Y-69036819D01*
X103801475Y-69022115D01*
X103827294Y-69005523D01*
X103833494Y-69004631D01*
X103835871Y-69003334D01*
X103862229Y-69000500D01*
X103945396Y-69000500D01*
X103992844Y-69009937D01*
X104016503Y-69019737D01*
X104016508Y-69019738D01*
X104016511Y-69019739D01*
X104171153Y-69050499D01*
X104171156Y-69050500D01*
X104171158Y-69050500D01*
X104328844Y-69050500D01*
X104328845Y-69050499D01*
X104483497Y-69019737D01*
X104629179Y-68959394D01*
X104760289Y-68871789D01*
X104871789Y-68760289D01*
X104959394Y-68629179D01*
X104962859Y-68620815D01*
X104973067Y-68596166D01*
X105019737Y-68483497D01*
X105050500Y-68328842D01*
X105050500Y-68171158D01*
X105050500Y-68171155D01*
X105050499Y-68171153D01*
X105019738Y-68016510D01*
X105019737Y-68016503D01*
X104959939Y-67872136D01*
X104950500Y-67824684D01*
X104950500Y-67354836D01*
X104970185Y-67287797D01*
X105005609Y-67251734D01*
X105110289Y-67181789D01*
X105221786Y-67070292D01*
X105221789Y-67070289D01*
X105309394Y-66939179D01*
X105369737Y-66793497D01*
X105400500Y-66638842D01*
X105400500Y-66481158D01*
X105400500Y-66481155D01*
X105400499Y-66481153D01*
X105388283Y-66419738D01*
X105369737Y-66326503D01*
X105369735Y-66326498D01*
X105309397Y-66180827D01*
X105309390Y-66180814D01*
X105221789Y-66049711D01*
X105221786Y-66049707D01*
X105110292Y-65938213D01*
X105110288Y-65938210D01*
X104979185Y-65850609D01*
X104979172Y-65850602D01*
X104833501Y-65790264D01*
X104833489Y-65790261D01*
X104678845Y-65759500D01*
X104678842Y-65759500D01*
X104521158Y-65759500D01*
X104521155Y-65759500D01*
X104366510Y-65790261D01*
X104366498Y-65790264D01*
X104220827Y-65850602D01*
X104220814Y-65850609D01*
X104089711Y-65938210D01*
X104089707Y-65938213D01*
X103978213Y-66049707D01*
X103978207Y-66049715D01*
X103890607Y-66180818D01*
X103890605Y-66180821D01*
X103873232Y-66222762D01*
X103846354Y-66262986D01*
X103705887Y-66403455D01*
X103705886Y-66403457D01*
X103686720Y-66432140D01*
X103629222Y-66518192D01*
X103576421Y-66645667D01*
X103576418Y-66645679D01*
X103555719Y-66749742D01*
X103555719Y-66749745D01*
X103549500Y-66781006D01*
X103549500Y-67375500D01*
X103529815Y-67442539D01*
X103477011Y-67488294D01*
X103432060Y-67498072D01*
X103432142Y-67498903D01*
X103426079Y-67499499D01*
X103281092Y-67528340D01*
X103281082Y-67528343D01*
X103144511Y-67584912D01*
X103144498Y-67584919D01*
X103021584Y-67667048D01*
X103021580Y-67667051D01*
X101417048Y-69271583D01*
X101401229Y-69295259D01*
X101374455Y-69335331D01*
X101354685Y-69364918D01*
X101334916Y-69394504D01*
X101334912Y-69394511D01*
X101278343Y-69531082D01*
X101278340Y-69531092D01*
X101249500Y-69676079D01*
X101249500Y-71637770D01*
X101229815Y-71704809D01*
X101213181Y-71725451D01*
X100438156Y-72500475D01*
X100438154Y-72500477D01*
X100406727Y-72547515D01*
X100406725Y-72547518D01*
X100356028Y-72623390D01*
X100356023Y-72623398D01*
X100299448Y-72759983D01*
X100297871Y-72765182D01*
X100293777Y-72776623D01*
X100251372Y-72879002D01*
X100251370Y-72879005D01*
X100220609Y-73033653D01*
X94400500Y-73033653D01*
X94400500Y-65551153D01*
X110979500Y-65551153D01*
X110979500Y-65708846D01*
X111010261Y-65863489D01*
X111010264Y-65863501D01*
X111070602Y-66009172D01*
X111070609Y-66009185D01*
X111158210Y-66140288D01*
X111158212Y-66140291D01*
X111178209Y-66160287D01*
X111178211Y-66160289D01*
X111240684Y-66222762D01*
X111289712Y-66271790D01*
X111420814Y-66359390D01*
X111420816Y-66359391D01*
X111420821Y-66359394D01*
X111527202Y-66403458D01*
X111527205Y-66403459D01*
X111527206Y-66403460D01*
X111566498Y-66419735D01*
X111566503Y-66419737D01*
X111566507Y-66419737D01*
X111566508Y-66419738D01*
X111721154Y-66450500D01*
X111721157Y-66450500D01*
X111721158Y-66450500D01*
X113017060Y-66450500D01*
X113084099Y-66470185D01*
X113104741Y-66486819D01*
X115913181Y-69295259D01*
X115946666Y-69356582D01*
X115949500Y-69382940D01*
X115949500Y-69828846D01*
X115980261Y-69983489D01*
X115980264Y-69983501D01*
X116040602Y-70129172D01*
X116040609Y-70129185D01*
X116128210Y-70260288D01*
X116128213Y-70260292D01*
X116239707Y-70371786D01*
X116239711Y-70371789D01*
X116370814Y-70459390D01*
X116370827Y-70459397D01*
X116444013Y-70489711D01*
X116516503Y-70519737D01*
X116671153Y-70550499D01*
X116671156Y-70550500D01*
X116671158Y-70550500D01*
X116828844Y-70550500D01*
X116828845Y-70550499D01*
X116983497Y-70519737D01*
X117129179Y-70459394D01*
X117260289Y-70371789D01*
X117371789Y-70260289D01*
X117459394Y-70129179D01*
X117519737Y-69983497D01*
X117550500Y-69828842D01*
X117550500Y-69671158D01*
X117550500Y-68921158D01*
X117532955Y-68832951D01*
X117519737Y-68766502D01*
X117477556Y-68664669D01*
X117462858Y-68629185D01*
X117459397Y-68620828D01*
X117459396Y-68620827D01*
X117459394Y-68620821D01*
X117371789Y-68489711D01*
X117260289Y-68378211D01*
X115631820Y-66749742D01*
X113910292Y-65028213D01*
X113910288Y-65028210D01*
X113779185Y-64940609D01*
X113779172Y-64940602D01*
X113633501Y-64880264D01*
X113633489Y-64880261D01*
X113478845Y-64849500D01*
X113478842Y-64849500D01*
X111971599Y-64849500D01*
X111947408Y-64847117D01*
X111919007Y-64841467D01*
X111858844Y-64829500D01*
X111858842Y-64829500D01*
X111701158Y-64829500D01*
X111701155Y-64829500D01*
X111546510Y-64860261D01*
X111546498Y-64860264D01*
X111400827Y-64920602D01*
X111400814Y-64920609D01*
X111269711Y-65008210D01*
X111269707Y-65008213D01*
X111158213Y-65119707D01*
X111158210Y-65119711D01*
X111070609Y-65250814D01*
X111070602Y-65250827D01*
X111010264Y-65396498D01*
X111010261Y-65396510D01*
X110979500Y-65551153D01*
X94400500Y-65551153D01*
X94400500Y-65034493D01*
X94401866Y-65016140D01*
X94410355Y-64959420D01*
X94438230Y-64773158D01*
X94441165Y-64759140D01*
X94508802Y-64509263D01*
X94513340Y-64495673D01*
X94609381Y-64255310D01*
X94615460Y-64242329D01*
X94738642Y-64014646D01*
X94746175Y-64002464D01*
X94894828Y-63790549D01*
X94903715Y-63779322D01*
X95075863Y-63585991D01*
X95085991Y-63575863D01*
X95279322Y-63403715D01*
X95290549Y-63394828D01*
X95502464Y-63246175D01*
X95514646Y-63238642D01*
X95742329Y-63115460D01*
X95755310Y-63109381D01*
X95995673Y-63013340D01*
X96009263Y-63008802D01*
X96259140Y-62941165D01*
X96273158Y-62938230D01*
X96516141Y-62901866D01*
X96534494Y-62900500D01*
X117442417Y-62900500D01*
X117496249Y-62900500D01*
X117503736Y-62900726D01*
G37*
%TD.AperFunction*%
%TD*%
M02*
