%TF.GenerationSoftware,KiCad,Pcbnew,9.0.3*%
%TF.CreationDate,2026-08-18T15:31:33+04:00*%
%TF.ProjectId,max30102_pcb,6d617833-3031-4303-925f-7063622e6b69,rev?*%
%TF.SameCoordinates,Original*%
%TF.FileFunction,Legend,Top*%
%TF.FilePolarity,Positive*%
%FSLAX46Y46*%
G04 Gerber Fmt 4.6, Leading zero omitted, Abs format (unit mm)*
G04 Created by KiCad (PCBNEW 9.0.3) date 2026-08-18 15:31:33*
%MOMM*%
%LPD*%
G01*
G04 APERTURE LIST*
%ADD10C,0.250000*%
%ADD11C,0.150000*%
%ADD12C,0.120000*%
G04 APERTURE END LIST*
D10*
X102402568Y-64614619D02*
X102402568Y-63614619D01*
X102402568Y-63614619D02*
X102735901Y-64328904D01*
X102735901Y-64328904D02*
X103069234Y-63614619D01*
X103069234Y-63614619D02*
X103069234Y-64614619D01*
X103497806Y-64328904D02*
X103973996Y-64328904D01*
X103402568Y-64614619D02*
X103735901Y-63614619D01*
X103735901Y-63614619D02*
X104069234Y-64614619D01*
X104307330Y-63614619D02*
X104973996Y-64614619D01*
X104973996Y-63614619D02*
X104307330Y-64614619D01*
X105259711Y-63614619D02*
X105878758Y-63614619D01*
X105878758Y-63614619D02*
X105545425Y-63995571D01*
X105545425Y-63995571D02*
X105688282Y-63995571D01*
X105688282Y-63995571D02*
X105783520Y-64043190D01*
X105783520Y-64043190D02*
X105831139Y-64090809D01*
X105831139Y-64090809D02*
X105878758Y-64186047D01*
X105878758Y-64186047D02*
X105878758Y-64424142D01*
X105878758Y-64424142D02*
X105831139Y-64519380D01*
X105831139Y-64519380D02*
X105783520Y-64567000D01*
X105783520Y-64567000D02*
X105688282Y-64614619D01*
X105688282Y-64614619D02*
X105402568Y-64614619D01*
X105402568Y-64614619D02*
X105307330Y-64567000D01*
X105307330Y-64567000D02*
X105259711Y-64519380D01*
X106497806Y-63614619D02*
X106593044Y-63614619D01*
X106593044Y-63614619D02*
X106688282Y-63662238D01*
X106688282Y-63662238D02*
X106735901Y-63709857D01*
X106735901Y-63709857D02*
X106783520Y-63805095D01*
X106783520Y-63805095D02*
X106831139Y-63995571D01*
X106831139Y-63995571D02*
X106831139Y-64233666D01*
X106831139Y-64233666D02*
X106783520Y-64424142D01*
X106783520Y-64424142D02*
X106735901Y-64519380D01*
X106735901Y-64519380D02*
X106688282Y-64567000D01*
X106688282Y-64567000D02*
X106593044Y-64614619D01*
X106593044Y-64614619D02*
X106497806Y-64614619D01*
X106497806Y-64614619D02*
X106402568Y-64567000D01*
X106402568Y-64567000D02*
X106354949Y-64519380D01*
X106354949Y-64519380D02*
X106307330Y-64424142D01*
X106307330Y-64424142D02*
X106259711Y-64233666D01*
X106259711Y-64233666D02*
X106259711Y-63995571D01*
X106259711Y-63995571D02*
X106307330Y-63805095D01*
X106307330Y-63805095D02*
X106354949Y-63709857D01*
X106354949Y-63709857D02*
X106402568Y-63662238D01*
X106402568Y-63662238D02*
X106497806Y-63614619D01*
X107783520Y-64614619D02*
X107212092Y-64614619D01*
X107497806Y-64614619D02*
X107497806Y-63614619D01*
X107497806Y-63614619D02*
X107402568Y-63757476D01*
X107402568Y-63757476D02*
X107307330Y-63852714D01*
X107307330Y-63852714D02*
X107212092Y-63900333D01*
X108402568Y-63614619D02*
X108497806Y-63614619D01*
X108497806Y-63614619D02*
X108593044Y-63662238D01*
X108593044Y-63662238D02*
X108640663Y-63709857D01*
X108640663Y-63709857D02*
X108688282Y-63805095D01*
X108688282Y-63805095D02*
X108735901Y-63995571D01*
X108735901Y-63995571D02*
X108735901Y-64233666D01*
X108735901Y-64233666D02*
X108688282Y-64424142D01*
X108688282Y-64424142D02*
X108640663Y-64519380D01*
X108640663Y-64519380D02*
X108593044Y-64567000D01*
X108593044Y-64567000D02*
X108497806Y-64614619D01*
X108497806Y-64614619D02*
X108402568Y-64614619D01*
X108402568Y-64614619D02*
X108307330Y-64567000D01*
X108307330Y-64567000D02*
X108259711Y-64519380D01*
X108259711Y-64519380D02*
X108212092Y-64424142D01*
X108212092Y-64424142D02*
X108164473Y-64233666D01*
X108164473Y-64233666D02*
X108164473Y-63995571D01*
X108164473Y-63995571D02*
X108212092Y-63805095D01*
X108212092Y-63805095D02*
X108259711Y-63709857D01*
X108259711Y-63709857D02*
X108307330Y-63662238D01*
X108307330Y-63662238D02*
X108402568Y-63614619D01*
X109116854Y-63709857D02*
X109164473Y-63662238D01*
X109164473Y-63662238D02*
X109259711Y-63614619D01*
X109259711Y-63614619D02*
X109497806Y-63614619D01*
X109497806Y-63614619D02*
X109593044Y-63662238D01*
X109593044Y-63662238D02*
X109640663Y-63709857D01*
X109640663Y-63709857D02*
X109688282Y-63805095D01*
X109688282Y-63805095D02*
X109688282Y-63900333D01*
X109688282Y-63900333D02*
X109640663Y-64043190D01*
X109640663Y-64043190D02*
X109069235Y-64614619D01*
X109069235Y-64614619D02*
X109688282Y-64614619D01*
D11*
X103539160Y-80144295D02*
X103539160Y-79344295D01*
X103920112Y-80144295D02*
X103920112Y-79344295D01*
X103920112Y-79344295D02*
X104377255Y-80144295D01*
X104377255Y-80144295D02*
X104377255Y-79344295D01*
X104643921Y-79344295D02*
X105101064Y-79344295D01*
X104872492Y-80144295D02*
X104872492Y-79344295D01*
X111174874Y-79344295D02*
X111441541Y-80144295D01*
X111441541Y-80144295D02*
X111708207Y-79344295D01*
X112432017Y-80068104D02*
X112393921Y-80106200D01*
X112393921Y-80106200D02*
X112279636Y-80144295D01*
X112279636Y-80144295D02*
X112203445Y-80144295D01*
X112203445Y-80144295D02*
X112089159Y-80106200D01*
X112089159Y-80106200D02*
X112012969Y-80030009D01*
X112012969Y-80030009D02*
X111974874Y-79953819D01*
X111974874Y-79953819D02*
X111936778Y-79801438D01*
X111936778Y-79801438D02*
X111936778Y-79687152D01*
X111936778Y-79687152D02*
X111974874Y-79534771D01*
X111974874Y-79534771D02*
X112012969Y-79458580D01*
X112012969Y-79458580D02*
X112089159Y-79382390D01*
X112089159Y-79382390D02*
X112203445Y-79344295D01*
X112203445Y-79344295D02*
X112279636Y-79344295D01*
X112279636Y-79344295D02*
X112393921Y-79382390D01*
X112393921Y-79382390D02*
X112432017Y-79420485D01*
X113232017Y-80068104D02*
X113193921Y-80106200D01*
X113193921Y-80106200D02*
X113079636Y-80144295D01*
X113079636Y-80144295D02*
X113003445Y-80144295D01*
X113003445Y-80144295D02*
X112889159Y-80106200D01*
X112889159Y-80106200D02*
X112812969Y-80030009D01*
X112812969Y-80030009D02*
X112774874Y-79953819D01*
X112774874Y-79953819D02*
X112736778Y-79801438D01*
X112736778Y-79801438D02*
X112736778Y-79687152D01*
X112736778Y-79687152D02*
X112774874Y-79534771D01*
X112774874Y-79534771D02*
X112812969Y-79458580D01*
X112812969Y-79458580D02*
X112889159Y-79382390D01*
X112889159Y-79382390D02*
X113003445Y-79344295D01*
X113003445Y-79344295D02*
X113079636Y-79344295D01*
X113079636Y-79344295D02*
X113193921Y-79382390D01*
X113193921Y-79382390D02*
X113232017Y-79420485D01*
X106001064Y-80106200D02*
X106115350Y-80144295D01*
X106115350Y-80144295D02*
X106305826Y-80144295D01*
X106305826Y-80144295D02*
X106382017Y-80106200D01*
X106382017Y-80106200D02*
X106420112Y-80068104D01*
X106420112Y-80068104D02*
X106458207Y-79991914D01*
X106458207Y-79991914D02*
X106458207Y-79915723D01*
X106458207Y-79915723D02*
X106420112Y-79839533D01*
X106420112Y-79839533D02*
X106382017Y-79801438D01*
X106382017Y-79801438D02*
X106305826Y-79763342D01*
X106305826Y-79763342D02*
X106153445Y-79725247D01*
X106153445Y-79725247D02*
X106077255Y-79687152D01*
X106077255Y-79687152D02*
X106039160Y-79649057D01*
X106039160Y-79649057D02*
X106001064Y-79572866D01*
X106001064Y-79572866D02*
X106001064Y-79496676D01*
X106001064Y-79496676D02*
X106039160Y-79420485D01*
X106039160Y-79420485D02*
X106077255Y-79382390D01*
X106077255Y-79382390D02*
X106153445Y-79344295D01*
X106153445Y-79344295D02*
X106343922Y-79344295D01*
X106343922Y-79344295D02*
X106458207Y-79382390D01*
X106801065Y-80144295D02*
X106801065Y-79344295D01*
X106801065Y-79344295D02*
X106991541Y-79344295D01*
X106991541Y-79344295D02*
X107105827Y-79382390D01*
X107105827Y-79382390D02*
X107182017Y-79458580D01*
X107182017Y-79458580D02*
X107220112Y-79534771D01*
X107220112Y-79534771D02*
X107258208Y-79687152D01*
X107258208Y-79687152D02*
X107258208Y-79801438D01*
X107258208Y-79801438D02*
X107220112Y-79953819D01*
X107220112Y-79953819D02*
X107182017Y-80030009D01*
X107182017Y-80030009D02*
X107105827Y-80106200D01*
X107105827Y-80106200D02*
X106991541Y-80144295D01*
X106991541Y-80144295D02*
X106801065Y-80144295D01*
X107562969Y-79915723D02*
X107943922Y-79915723D01*
X107486779Y-80144295D02*
X107753446Y-79344295D01*
X107753446Y-79344295D02*
X108020112Y-80144295D01*
X101208207Y-79382390D02*
X101132017Y-79344295D01*
X101132017Y-79344295D02*
X101017731Y-79344295D01*
X101017731Y-79344295D02*
X100903445Y-79382390D01*
X100903445Y-79382390D02*
X100827255Y-79458580D01*
X100827255Y-79458580D02*
X100789160Y-79534771D01*
X100789160Y-79534771D02*
X100751064Y-79687152D01*
X100751064Y-79687152D02*
X100751064Y-79801438D01*
X100751064Y-79801438D02*
X100789160Y-79953819D01*
X100789160Y-79953819D02*
X100827255Y-80030009D01*
X100827255Y-80030009D02*
X100903445Y-80106200D01*
X100903445Y-80106200D02*
X101017731Y-80144295D01*
X101017731Y-80144295D02*
X101093922Y-80144295D01*
X101093922Y-80144295D02*
X101208207Y-80106200D01*
X101208207Y-80106200D02*
X101246303Y-80068104D01*
X101246303Y-80068104D02*
X101246303Y-79801438D01*
X101246303Y-79801438D02*
X101093922Y-79801438D01*
X101589160Y-80144295D02*
X101589160Y-79344295D01*
X101589160Y-79344295D02*
X102046303Y-80144295D01*
X102046303Y-80144295D02*
X102046303Y-79344295D01*
X102427255Y-80144295D02*
X102427255Y-79344295D01*
X102427255Y-79344295D02*
X102617731Y-79344295D01*
X102617731Y-79344295D02*
X102732017Y-79382390D01*
X102732017Y-79382390D02*
X102808207Y-79458580D01*
X102808207Y-79458580D02*
X102846302Y-79534771D01*
X102846302Y-79534771D02*
X102884398Y-79687152D01*
X102884398Y-79687152D02*
X102884398Y-79801438D01*
X102884398Y-79801438D02*
X102846302Y-79953819D01*
X102846302Y-79953819D02*
X102808207Y-80030009D01*
X102808207Y-80030009D02*
X102732017Y-80106200D01*
X102732017Y-80106200D02*
X102617731Y-80144295D01*
X102617731Y-80144295D02*
X102427255Y-80144295D01*
X108501064Y-80106200D02*
X108615350Y-80144295D01*
X108615350Y-80144295D02*
X108805826Y-80144295D01*
X108805826Y-80144295D02*
X108882017Y-80106200D01*
X108882017Y-80106200D02*
X108920112Y-80068104D01*
X108920112Y-80068104D02*
X108958207Y-79991914D01*
X108958207Y-79991914D02*
X108958207Y-79915723D01*
X108958207Y-79915723D02*
X108920112Y-79839533D01*
X108920112Y-79839533D02*
X108882017Y-79801438D01*
X108882017Y-79801438D02*
X108805826Y-79763342D01*
X108805826Y-79763342D02*
X108653445Y-79725247D01*
X108653445Y-79725247D02*
X108577255Y-79687152D01*
X108577255Y-79687152D02*
X108539160Y-79649057D01*
X108539160Y-79649057D02*
X108501064Y-79572866D01*
X108501064Y-79572866D02*
X108501064Y-79496676D01*
X108501064Y-79496676D02*
X108539160Y-79420485D01*
X108539160Y-79420485D02*
X108577255Y-79382390D01*
X108577255Y-79382390D02*
X108653445Y-79344295D01*
X108653445Y-79344295D02*
X108843922Y-79344295D01*
X108843922Y-79344295D02*
X108958207Y-79382390D01*
X109758208Y-80068104D02*
X109720112Y-80106200D01*
X109720112Y-80106200D02*
X109605827Y-80144295D01*
X109605827Y-80144295D02*
X109529636Y-80144295D01*
X109529636Y-80144295D02*
X109415350Y-80106200D01*
X109415350Y-80106200D02*
X109339160Y-80030009D01*
X109339160Y-80030009D02*
X109301065Y-79953819D01*
X109301065Y-79953819D02*
X109262969Y-79801438D01*
X109262969Y-79801438D02*
X109262969Y-79687152D01*
X109262969Y-79687152D02*
X109301065Y-79534771D01*
X109301065Y-79534771D02*
X109339160Y-79458580D01*
X109339160Y-79458580D02*
X109415350Y-79382390D01*
X109415350Y-79382390D02*
X109529636Y-79344295D01*
X109529636Y-79344295D02*
X109605827Y-79344295D01*
X109605827Y-79344295D02*
X109720112Y-79382390D01*
X109720112Y-79382390D02*
X109758208Y-79420485D01*
X110482017Y-80144295D02*
X110101065Y-80144295D01*
X110101065Y-80144295D02*
X110101065Y-79344295D01*
X114109580Y-65666666D02*
X114157200Y-65714285D01*
X114157200Y-65714285D02*
X114204819Y-65857142D01*
X114204819Y-65857142D02*
X114204819Y-65952380D01*
X114204819Y-65952380D02*
X114157200Y-66095237D01*
X114157200Y-66095237D02*
X114061961Y-66190475D01*
X114061961Y-66190475D02*
X113966723Y-66238094D01*
X113966723Y-66238094D02*
X113776247Y-66285713D01*
X113776247Y-66285713D02*
X113633390Y-66285713D01*
X113633390Y-66285713D02*
X113442914Y-66238094D01*
X113442914Y-66238094D02*
X113347676Y-66190475D01*
X113347676Y-66190475D02*
X113252438Y-66095237D01*
X113252438Y-66095237D02*
X113204819Y-65952380D01*
X113204819Y-65952380D02*
X113204819Y-65857142D01*
X113204819Y-65857142D02*
X113252438Y-65714285D01*
X113252438Y-65714285D02*
X113300057Y-65666666D01*
X114204819Y-64714285D02*
X114204819Y-65285713D01*
X114204819Y-64999999D02*
X113204819Y-64999999D01*
X113204819Y-64999999D02*
X113347676Y-65095237D01*
X113347676Y-65095237D02*
X113442914Y-65190475D01*
X113442914Y-65190475D02*
X113490533Y-65285713D01*
X100833333Y-65609580D02*
X100785714Y-65657200D01*
X100785714Y-65657200D02*
X100642857Y-65704819D01*
X100642857Y-65704819D02*
X100547619Y-65704819D01*
X100547619Y-65704819D02*
X100404762Y-65657200D01*
X100404762Y-65657200D02*
X100309524Y-65561961D01*
X100309524Y-65561961D02*
X100261905Y-65466723D01*
X100261905Y-65466723D02*
X100214286Y-65276247D01*
X100214286Y-65276247D02*
X100214286Y-65133390D01*
X100214286Y-65133390D02*
X100261905Y-64942914D01*
X100261905Y-64942914D02*
X100309524Y-64847676D01*
X100309524Y-64847676D02*
X100404762Y-64752438D01*
X100404762Y-64752438D02*
X100547619Y-64704819D01*
X100547619Y-64704819D02*
X100642857Y-64704819D01*
X100642857Y-64704819D02*
X100785714Y-64752438D01*
X100785714Y-64752438D02*
X100833333Y-64800057D01*
X101166667Y-64704819D02*
X101785714Y-64704819D01*
X101785714Y-64704819D02*
X101452381Y-65085771D01*
X101452381Y-65085771D02*
X101595238Y-65085771D01*
X101595238Y-65085771D02*
X101690476Y-65133390D01*
X101690476Y-65133390D02*
X101738095Y-65181009D01*
X101738095Y-65181009D02*
X101785714Y-65276247D01*
X101785714Y-65276247D02*
X101785714Y-65514342D01*
X101785714Y-65514342D02*
X101738095Y-65609580D01*
X101738095Y-65609580D02*
X101690476Y-65657200D01*
X101690476Y-65657200D02*
X101595238Y-65704819D01*
X101595238Y-65704819D02*
X101309524Y-65704819D01*
X101309524Y-65704819D02*
X101214286Y-65657200D01*
X101214286Y-65657200D02*
X101166667Y-65609580D01*
X105359580Y-73166666D02*
X105407200Y-73214285D01*
X105407200Y-73214285D02*
X105454819Y-73357142D01*
X105454819Y-73357142D02*
X105454819Y-73452380D01*
X105454819Y-73452380D02*
X105407200Y-73595237D01*
X105407200Y-73595237D02*
X105311961Y-73690475D01*
X105311961Y-73690475D02*
X105216723Y-73738094D01*
X105216723Y-73738094D02*
X105026247Y-73785713D01*
X105026247Y-73785713D02*
X104883390Y-73785713D01*
X104883390Y-73785713D02*
X104692914Y-73738094D01*
X104692914Y-73738094D02*
X104597676Y-73690475D01*
X104597676Y-73690475D02*
X104502438Y-73595237D01*
X104502438Y-73595237D02*
X104454819Y-73452380D01*
X104454819Y-73452380D02*
X104454819Y-73357142D01*
X104454819Y-73357142D02*
X104502438Y-73214285D01*
X104502438Y-73214285D02*
X104550057Y-73166666D01*
X104454819Y-72261904D02*
X104454819Y-72738094D01*
X104454819Y-72738094D02*
X104931009Y-72785713D01*
X104931009Y-72785713D02*
X104883390Y-72738094D01*
X104883390Y-72738094D02*
X104835771Y-72642856D01*
X104835771Y-72642856D02*
X104835771Y-72404761D01*
X104835771Y-72404761D02*
X104883390Y-72309523D01*
X104883390Y-72309523D02*
X104931009Y-72261904D01*
X104931009Y-72261904D02*
X105026247Y-72214285D01*
X105026247Y-72214285D02*
X105264342Y-72214285D01*
X105264342Y-72214285D02*
X105359580Y-72261904D01*
X105359580Y-72261904D02*
X105407200Y-72309523D01*
X105407200Y-72309523D02*
X105454819Y-72404761D01*
X105454819Y-72404761D02*
X105454819Y-72642856D01*
X105454819Y-72642856D02*
X105407200Y-72738094D01*
X105407200Y-72738094D02*
X105359580Y-72785713D01*
X99034819Y-78083333D02*
X99749104Y-78083333D01*
X99749104Y-78083333D02*
X99891961Y-78130952D01*
X99891961Y-78130952D02*
X99987200Y-78226190D01*
X99987200Y-78226190D02*
X100034819Y-78369047D01*
X100034819Y-78369047D02*
X100034819Y-78464285D01*
X100034819Y-77083333D02*
X100034819Y-77654761D01*
X100034819Y-77369047D02*
X99034819Y-77369047D01*
X99034819Y-77369047D02*
X99177676Y-77464285D01*
X99177676Y-77464285D02*
X99272914Y-77559523D01*
X99272914Y-77559523D02*
X99320533Y-77654761D01*
X112704819Y-65666666D02*
X112228628Y-65999999D01*
X112704819Y-66238094D02*
X111704819Y-66238094D01*
X111704819Y-66238094D02*
X111704819Y-65857142D01*
X111704819Y-65857142D02*
X111752438Y-65761904D01*
X111752438Y-65761904D02*
X111800057Y-65714285D01*
X111800057Y-65714285D02*
X111895295Y-65666666D01*
X111895295Y-65666666D02*
X112038152Y-65666666D01*
X112038152Y-65666666D02*
X112133390Y-65714285D01*
X112133390Y-65714285D02*
X112181009Y-65761904D01*
X112181009Y-65761904D02*
X112228628Y-65857142D01*
X112228628Y-65857142D02*
X112228628Y-66238094D01*
X112704819Y-64714285D02*
X112704819Y-65285713D01*
X112704819Y-64999999D02*
X111704819Y-64999999D01*
X111704819Y-64999999D02*
X111847676Y-65095237D01*
X111847676Y-65095237D02*
X111942914Y-65190475D01*
X111942914Y-65190475D02*
X111990533Y-65285713D01*
X116488095Y-71954819D02*
X116488095Y-72764342D01*
X116488095Y-72764342D02*
X116535714Y-72859580D01*
X116535714Y-72859580D02*
X116583333Y-72907200D01*
X116583333Y-72907200D02*
X116678571Y-72954819D01*
X116678571Y-72954819D02*
X116869047Y-72954819D01*
X116869047Y-72954819D02*
X116964285Y-72907200D01*
X116964285Y-72907200D02*
X117011904Y-72859580D01*
X117011904Y-72859580D02*
X117059523Y-72764342D01*
X117059523Y-72764342D02*
X117059523Y-71954819D01*
X118059523Y-72954819D02*
X117488095Y-72954819D01*
X117773809Y-72954819D02*
X117773809Y-71954819D01*
X117773809Y-71954819D02*
X117678571Y-72097676D01*
X117678571Y-72097676D02*
X117583333Y-72192914D01*
X117583333Y-72192914D02*
X117488095Y-72240533D01*
X95538095Y-69567319D02*
X95538095Y-70376842D01*
X95538095Y-70376842D02*
X95585714Y-70472080D01*
X95585714Y-70472080D02*
X95633333Y-70519700D01*
X95633333Y-70519700D02*
X95728571Y-70567319D01*
X95728571Y-70567319D02*
X95919047Y-70567319D01*
X95919047Y-70567319D02*
X96014285Y-70519700D01*
X96014285Y-70519700D02*
X96061904Y-70472080D01*
X96061904Y-70472080D02*
X96109523Y-70376842D01*
X96109523Y-70376842D02*
X96109523Y-69567319D01*
X96538095Y-69662557D02*
X96585714Y-69614938D01*
X96585714Y-69614938D02*
X96680952Y-69567319D01*
X96680952Y-69567319D02*
X96919047Y-69567319D01*
X96919047Y-69567319D02*
X97014285Y-69614938D01*
X97014285Y-69614938D02*
X97061904Y-69662557D01*
X97061904Y-69662557D02*
X97109523Y-69757795D01*
X97109523Y-69757795D02*
X97109523Y-69853033D01*
X97109523Y-69853033D02*
X97061904Y-69995890D01*
X97061904Y-69995890D02*
X96490476Y-70567319D01*
X96490476Y-70567319D02*
X97109523Y-70567319D01*
X115678183Y-75251506D02*
X115678183Y-74251506D01*
X115678183Y-74251506D02*
X115916278Y-74251506D01*
X115916278Y-74251506D02*
X116059135Y-74299125D01*
X116059135Y-74299125D02*
X116154373Y-74394363D01*
X116154373Y-74394363D02*
X116201992Y-74489601D01*
X116201992Y-74489601D02*
X116249611Y-74680077D01*
X116249611Y-74680077D02*
X116249611Y-74822934D01*
X116249611Y-74822934D02*
X116201992Y-75013410D01*
X116201992Y-75013410D02*
X116154373Y-75108648D01*
X116154373Y-75108648D02*
X116059135Y-75203887D01*
X116059135Y-75203887D02*
X115916278Y-75251506D01*
X115916278Y-75251506D02*
X115678183Y-75251506D01*
X117201992Y-75251506D02*
X116630564Y-75251506D01*
X116916278Y-75251506D02*
X116916278Y-74251506D01*
X116916278Y-74251506D02*
X116821040Y-74394363D01*
X116821040Y-74394363D02*
X116725802Y-74489601D01*
X116725802Y-74489601D02*
X116630564Y-74537220D01*
X98883333Y-74902080D02*
X98835714Y-74949700D01*
X98835714Y-74949700D02*
X98692857Y-74997319D01*
X98692857Y-74997319D02*
X98597619Y-74997319D01*
X98597619Y-74997319D02*
X98454762Y-74949700D01*
X98454762Y-74949700D02*
X98359524Y-74854461D01*
X98359524Y-74854461D02*
X98311905Y-74759223D01*
X98311905Y-74759223D02*
X98264286Y-74568747D01*
X98264286Y-74568747D02*
X98264286Y-74425890D01*
X98264286Y-74425890D02*
X98311905Y-74235414D01*
X98311905Y-74235414D02*
X98359524Y-74140176D01*
X98359524Y-74140176D02*
X98454762Y-74044938D01*
X98454762Y-74044938D02*
X98597619Y-73997319D01*
X98597619Y-73997319D02*
X98692857Y-73997319D01*
X98692857Y-73997319D02*
X98835714Y-74044938D01*
X98835714Y-74044938D02*
X98883333Y-74092557D01*
X99740476Y-74330652D02*
X99740476Y-74997319D01*
X99502381Y-73949700D02*
X99264286Y-74663985D01*
X99264286Y-74663985D02*
X99883333Y-74663985D01*
X118109580Y-69166666D02*
X118157200Y-69214285D01*
X118157200Y-69214285D02*
X118204819Y-69357142D01*
X118204819Y-69357142D02*
X118204819Y-69452380D01*
X118204819Y-69452380D02*
X118157200Y-69595237D01*
X118157200Y-69595237D02*
X118061961Y-69690475D01*
X118061961Y-69690475D02*
X117966723Y-69738094D01*
X117966723Y-69738094D02*
X117776247Y-69785713D01*
X117776247Y-69785713D02*
X117633390Y-69785713D01*
X117633390Y-69785713D02*
X117442914Y-69738094D01*
X117442914Y-69738094D02*
X117347676Y-69690475D01*
X117347676Y-69690475D02*
X117252438Y-69595237D01*
X117252438Y-69595237D02*
X117204819Y-69452380D01*
X117204819Y-69452380D02*
X117204819Y-69357142D01*
X117204819Y-69357142D02*
X117252438Y-69214285D01*
X117252438Y-69214285D02*
X117300057Y-69166666D01*
X117300057Y-68785713D02*
X117252438Y-68738094D01*
X117252438Y-68738094D02*
X117204819Y-68642856D01*
X117204819Y-68642856D02*
X117204819Y-68404761D01*
X117204819Y-68404761D02*
X117252438Y-68309523D01*
X117252438Y-68309523D02*
X117300057Y-68261904D01*
X117300057Y-68261904D02*
X117395295Y-68214285D01*
X117395295Y-68214285D02*
X117490533Y-68214285D01*
X117490533Y-68214285D02*
X117633390Y-68261904D01*
X117633390Y-68261904D02*
X118204819Y-68833332D01*
X118204819Y-68833332D02*
X118204819Y-68214285D01*
X107928095Y-73114819D02*
X107928095Y-73924342D01*
X107928095Y-73924342D02*
X107975714Y-74019580D01*
X107975714Y-74019580D02*
X108023333Y-74067200D01*
X108023333Y-74067200D02*
X108118571Y-74114819D01*
X108118571Y-74114819D02*
X108309047Y-74114819D01*
X108309047Y-74114819D02*
X108404285Y-74067200D01*
X108404285Y-74067200D02*
X108451904Y-74019580D01*
X108451904Y-74019580D02*
X108499523Y-73924342D01*
X108499523Y-73924342D02*
X108499523Y-73114819D01*
X108880476Y-73114819D02*
X109499523Y-73114819D01*
X109499523Y-73114819D02*
X109166190Y-73495771D01*
X109166190Y-73495771D02*
X109309047Y-73495771D01*
X109309047Y-73495771D02*
X109404285Y-73543390D01*
X109404285Y-73543390D02*
X109451904Y-73591009D01*
X109451904Y-73591009D02*
X109499523Y-73686247D01*
X109499523Y-73686247D02*
X109499523Y-73924342D01*
X109499523Y-73924342D02*
X109451904Y-74019580D01*
X109451904Y-74019580D02*
X109404285Y-74067200D01*
X109404285Y-74067200D02*
X109309047Y-74114819D01*
X109309047Y-74114819D02*
X109023333Y-74114819D01*
X109023333Y-74114819D02*
X108928095Y-74067200D01*
X108928095Y-74067200D02*
X108880476Y-74019580D01*
X103609580Y-73166666D02*
X103657200Y-73214285D01*
X103657200Y-73214285D02*
X103704819Y-73357142D01*
X103704819Y-73357142D02*
X103704819Y-73452380D01*
X103704819Y-73452380D02*
X103657200Y-73595237D01*
X103657200Y-73595237D02*
X103561961Y-73690475D01*
X103561961Y-73690475D02*
X103466723Y-73738094D01*
X103466723Y-73738094D02*
X103276247Y-73785713D01*
X103276247Y-73785713D02*
X103133390Y-73785713D01*
X103133390Y-73785713D02*
X102942914Y-73738094D01*
X102942914Y-73738094D02*
X102847676Y-73690475D01*
X102847676Y-73690475D02*
X102752438Y-73595237D01*
X102752438Y-73595237D02*
X102704819Y-73452380D01*
X102704819Y-73452380D02*
X102704819Y-73357142D01*
X102704819Y-73357142D02*
X102752438Y-73214285D01*
X102752438Y-73214285D02*
X102800057Y-73166666D01*
X102704819Y-72309523D02*
X102704819Y-72499999D01*
X102704819Y-72499999D02*
X102752438Y-72595237D01*
X102752438Y-72595237D02*
X102800057Y-72642856D01*
X102800057Y-72642856D02*
X102942914Y-72738094D01*
X102942914Y-72738094D02*
X103133390Y-72785713D01*
X103133390Y-72785713D02*
X103514342Y-72785713D01*
X103514342Y-72785713D02*
X103609580Y-72738094D01*
X103609580Y-72738094D02*
X103657200Y-72690475D01*
X103657200Y-72690475D02*
X103704819Y-72595237D01*
X103704819Y-72595237D02*
X103704819Y-72404761D01*
X103704819Y-72404761D02*
X103657200Y-72309523D01*
X103657200Y-72309523D02*
X103609580Y-72261904D01*
X103609580Y-72261904D02*
X103514342Y-72214285D01*
X103514342Y-72214285D02*
X103276247Y-72214285D01*
X103276247Y-72214285D02*
X103181009Y-72261904D01*
X103181009Y-72261904D02*
X103133390Y-72309523D01*
X103133390Y-72309523D02*
X103085771Y-72404761D01*
X103085771Y-72404761D02*
X103085771Y-72595237D01*
X103085771Y-72595237D02*
X103133390Y-72690475D01*
X103133390Y-72690475D02*
X103181009Y-72738094D01*
X103181009Y-72738094D02*
X103276247Y-72785713D01*
X102454819Y-72916666D02*
X101978628Y-73249999D01*
X102454819Y-73488094D02*
X101454819Y-73488094D01*
X101454819Y-73488094D02*
X101454819Y-73107142D01*
X101454819Y-73107142D02*
X101502438Y-73011904D01*
X101502438Y-73011904D02*
X101550057Y-72964285D01*
X101550057Y-72964285D02*
X101645295Y-72916666D01*
X101645295Y-72916666D02*
X101788152Y-72916666D01*
X101788152Y-72916666D02*
X101883390Y-72964285D01*
X101883390Y-72964285D02*
X101931009Y-73011904D01*
X101931009Y-73011904D02*
X101978628Y-73107142D01*
X101978628Y-73107142D02*
X101978628Y-73488094D01*
X101454819Y-72583332D02*
X101454819Y-71964285D01*
X101454819Y-71964285D02*
X101835771Y-72297618D01*
X101835771Y-72297618D02*
X101835771Y-72154761D01*
X101835771Y-72154761D02*
X101883390Y-72059523D01*
X101883390Y-72059523D02*
X101931009Y-72011904D01*
X101931009Y-72011904D02*
X102026247Y-71964285D01*
X102026247Y-71964285D02*
X102264342Y-71964285D01*
X102264342Y-71964285D02*
X102359580Y-72011904D01*
X102359580Y-72011904D02*
X102407200Y-72059523D01*
X102407200Y-72059523D02*
X102454819Y-72154761D01*
X102454819Y-72154761D02*
X102454819Y-72440475D01*
X102454819Y-72440475D02*
X102407200Y-72535713D01*
X102407200Y-72535713D02*
X102359580Y-72583332D01*
X111204819Y-65666666D02*
X110728628Y-65999999D01*
X111204819Y-66238094D02*
X110204819Y-66238094D01*
X110204819Y-66238094D02*
X110204819Y-65857142D01*
X110204819Y-65857142D02*
X110252438Y-65761904D01*
X110252438Y-65761904D02*
X110300057Y-65714285D01*
X110300057Y-65714285D02*
X110395295Y-65666666D01*
X110395295Y-65666666D02*
X110538152Y-65666666D01*
X110538152Y-65666666D02*
X110633390Y-65714285D01*
X110633390Y-65714285D02*
X110681009Y-65761904D01*
X110681009Y-65761904D02*
X110728628Y-65857142D01*
X110728628Y-65857142D02*
X110728628Y-66238094D01*
X110300057Y-65285713D02*
X110252438Y-65238094D01*
X110252438Y-65238094D02*
X110204819Y-65142856D01*
X110204819Y-65142856D02*
X110204819Y-64904761D01*
X110204819Y-64904761D02*
X110252438Y-64809523D01*
X110252438Y-64809523D02*
X110300057Y-64761904D01*
X110300057Y-64761904D02*
X110395295Y-64714285D01*
X110395295Y-64714285D02*
X110490533Y-64714285D01*
X110490533Y-64714285D02*
X110633390Y-64761904D01*
X110633390Y-64761904D02*
X111204819Y-65333332D01*
X111204819Y-65333332D02*
X111204819Y-64714285D01*
D12*
%TO.C,C1*%
X113240000Y-69140580D02*
X113240000Y-68859420D01*
X114260000Y-69140580D02*
X114260000Y-68859420D01*
%TO.C,C3*%
X101140580Y-66240000D02*
X100859420Y-66240000D01*
X101140580Y-67260000D02*
X100859420Y-67260000D01*
%TO.C,C5*%
X104040000Y-69946920D02*
X104040000Y-70228080D01*
X105060000Y-69946920D02*
X105060000Y-70228080D01*
%TO.C,J1*%
X100580000Y-79130000D02*
X100580000Y-77750000D01*
X101960000Y-79130000D02*
X100580000Y-79130000D01*
X103230000Y-76370000D02*
X113500000Y-76370000D01*
X103230000Y-79130000D02*
X103230000Y-76370000D01*
X103230000Y-79130000D02*
X113500000Y-79130000D01*
X113500000Y-79130000D02*
X113500000Y-76370000D01*
%TO.C,R1*%
X111727500Y-68745276D02*
X111727500Y-69254724D01*
X112772500Y-68745276D02*
X112772500Y-69254724D01*
%TO.C,U1*%
X113340000Y-70940000D02*
X115160000Y-70940000D01*
X113340000Y-70990000D02*
X113340000Y-70940000D01*
X113340000Y-74060000D02*
X113340000Y-74010000D01*
X115160000Y-70940000D02*
X115160000Y-70990000D01*
X115160000Y-72110000D02*
X115160000Y-72890000D01*
X115160000Y-74010000D02*
X115160000Y-74060000D01*
X115160000Y-74060000D02*
X113340000Y-74060000D01*
X112800000Y-70990000D02*
X112560000Y-70660000D01*
X113040000Y-70660000D01*
X112800000Y-70990000D01*
G36*
X112800000Y-70990000D02*
G01*
X112560000Y-70660000D01*
X113040000Y-70660000D01*
X112800000Y-70990000D01*
G37*
%TO.C,U2*%
X97490000Y-69202500D02*
X97540000Y-69202500D01*
X97490000Y-71022500D02*
X97490000Y-69202500D01*
X97540000Y-71022500D02*
X97490000Y-71022500D01*
X99440000Y-71022500D02*
X98660000Y-71022500D01*
X100560000Y-69202500D02*
X100610000Y-69202500D01*
X100610000Y-69202500D02*
X100610000Y-71022500D01*
X100610000Y-71022500D02*
X100560000Y-71022500D01*
X100890000Y-68902500D02*
X100560000Y-68662500D01*
X100890000Y-68422500D01*
X100890000Y-68902500D01*
G36*
X100890000Y-68902500D02*
G01*
X100560000Y-68662500D01*
X100890000Y-68422500D01*
X100890000Y-68902500D01*
G37*
%TO.C,D1*%
X111590000Y-74265000D02*
X111590000Y-75735000D01*
X111590000Y-75735000D02*
X114050000Y-75735000D01*
X114050000Y-74265000D02*
X111590000Y-74265000D01*
%TO.C,C4*%
X99190580Y-72602500D02*
X98909420Y-72602500D01*
X99190580Y-73622500D02*
X98909420Y-73622500D01*
%TO.C,C2*%
X114740000Y-69140580D02*
X114740000Y-68859420D01*
X115760000Y-69140580D02*
X115760000Y-68859420D01*
%TO.C,U3*%
X106090000Y-66850000D02*
X109400000Y-66850000D01*
X109000000Y-72670000D02*
X106110000Y-72670000D01*
X109440000Y-72880000D02*
X109440000Y-72600000D01*
X109720000Y-72600000D01*
X109440000Y-72880000D01*
G36*
X109440000Y-72880000D02*
G01*
X109440000Y-72600000D01*
X109720000Y-72600000D01*
X109440000Y-72880000D01*
G37*
%TO.C,C6*%
X102540000Y-69946920D02*
X102540000Y-70228080D01*
X103560000Y-69946920D02*
X103560000Y-70228080D01*
%TO.C,R3*%
X101027500Y-70504724D02*
X101027500Y-69995276D01*
X102072500Y-70504724D02*
X102072500Y-69995276D01*
%TO.C,R2*%
X110227500Y-68745276D02*
X110227500Y-69254724D01*
X111272500Y-68745276D02*
X111272500Y-69254724D01*
%TD*%
M02*
