M48
; DRILL file {KiCad 9.0.3} date 2026-08-18T15:31:41+0400
; FORMAT={-:-/ absolute / metric / decimal}
; #@! TF.CreationDate,2026-08-18T15:31:41+04:00
; #@! TF.GenerationSoftware,Kicad,Pcbnew,9.0.3
; #@! TF.FileFunction,Plated,1,2,PTH
FMAT,2
METRIC
; #@! TA.AperFunction,Plated,PTH,ViaDrill
T1C0.300
; #@! TA.AperFunction,Plated,PTH,ComponentDrill
T2C0.400
; #@! TA.AperFunction,Plated,PTH,ComponentDrill
T3C1.000
; #@! TA.AperFunction,Plated,PTH,ComponentDrill
T4C2.200
%
G90
G05
T1
X95.59Y-68.35
X95.61Y-71.08
X95.61Y-73.11
X97.228Y-73.138
X99.0Y-67.75
X99.256Y-66.762
X101.021Y-73.112
X101.86Y-75.07
X103.096Y-71.815
X104.25Y-68.25
X104.55Y-71.845
X104.6Y-66.56
X105.75Y-74.5
X105.75Y-75.5
X106.5Y-73.5
X107.464Y-70.544
X108.006Y-69.726
X110.25Y-71.0
X110.25Y-72.75
X110.75Y-73.75
X110.991Y-71.747
X111.78Y-65.63
X114.399Y-72.482
X115.25Y-75.0
X116.75Y-69.75
X118.65Y-74.85
X118.75Y-72.797
X118.77Y-70.743
X118.79Y-68.69
T2
X95.1Y-65.25
X95.1Y-77.75
X95.583Y-64.083
X95.583Y-66.417
X95.583Y-76.583
X95.583Y-78.917
X96.75Y-63.6
X96.75Y-66.9
X96.75Y-76.1
X96.75Y-79.4
X97.917Y-64.083
X97.917Y-66.417
X97.917Y-76.583
X97.917Y-78.917
X98.4Y-65.25
X98.4Y-77.75
X115.85Y-65.25
X115.85Y-77.75
X116.333Y-64.083
X116.333Y-66.417
X116.333Y-76.583
X116.333Y-78.917
X117.5Y-63.6
X117.5Y-66.9
X117.5Y-76.1
X117.5Y-79.4
X118.667Y-64.083
X118.667Y-66.417
X118.667Y-76.583
X118.667Y-78.917
X119.15Y-65.25
X119.15Y-77.75
T3
X101.96Y-77.75
X104.5Y-77.75
X107.04Y-77.75
X109.58Y-77.75
X112.12Y-77.75
T4
X96.75Y-65.25
X96.75Y-77.75
X117.5Y-65.25
X117.5Y-77.75
M30
